<svg width="31" height="11" viewBox="0 0 31 11" fill="none" xmlns="http://www.w3.org/2000/svg">
<g clip-path="url(#clip0_101_1026)">
<path d="M13.3052 0.0734703L8.11474 3.96809C7.87079 3.01015 7.30702 2.15867 6.51225 1.54783C5.71749 0.936999 4.73698 0.601553 3.72521 0.594363H0V9.54652H3.72521C4.74237 9.55991 5.73338 9.23213 6.5324 8.61802C7.33146 8.00388 7.89006 7.14066 8.11474 6.17281L13.3052 10.0674L18.4957 6.17281V9.54652H24.3505V7.72945H20.4887V0.588306H18.3591V3.96202L13.4356 7.85663L12.3739 6.94809L14.7705 5.13102L17.2974 3.18673L15.8322 2.01775L10.9087 5.77909L9.84697 4.87056L14.7705 1.2364L13.3052 0.0674133V0.0734703ZM1.99299 2.40539H3.58864C3.91882 2.40601 4.24499 2.47626 4.54478 2.61132C4.84928 2.74795 5.12349 2.94137 5.3519 3.18068C5.59229 3.43256 5.78189 3.72641 5.91068 4.04681C6.17545 4.72777 6.17545 5.47973 5.91068 6.1607C5.79024 6.48013 5.61142 6.77566 5.38294 7.03288C5.16087 7.28573 4.88835 7.49181 4.58201 7.63859C4.26648 7.7872 3.92041 7.86384 3.57 7.8627H1.99299V2.41145V2.40539ZM30.9938 7.72945V9.54652H25.1452V0.588306H27.2748V7.72945H31H30.9938Z" fill="white" fill-opacity="0.8"/>
</g>
<defs>
<clipPath id="clip0_101_1026">
<rect width="31" height="10" fill="white" transform="translate(0 0.0674133)"/>
</clipPath>
</defs>
</svg>
