<svg width="44" height="10" viewBox="0 0 44 10" fill="none" xmlns="http://www.w3.org/2000/svg">
<g clip-path="url(#clip0_101_1029)">
<path d="M29.1534 8.15918C29.73 8.17181 30.2879 7.95053 30.7049 7.54388L31.4747 8.38967C30.9661 8.9228 30.263 9.31764 29.1672 9.31764C27.2897 9.31764 26.078 8.04695 26.078 6.32731C26.0704 5.94189 26.1374 5.55874 26.2751 5.19978C26.4128 4.84081 26.6185 4.51308 26.8804 4.23534C27.1424 3.95759 27.4554 3.73528 27.8016 3.58113C28.1478 3.42698 28.5204 3.34401 28.8981 3.33698H29.0022C30.8659 3.33698 31.9225 4.78404 31.8302 6.79229H27.4193C27.5764 7.62606 28.1499 8.15718 29.1534 8.15718V8.15918ZM30.4967 5.82825C30.3789 5.0506 29.9232 4.47739 29.01 4.47739C28.6264 4.45452 28.2486 4.58136 27.9533 4.8322C27.6579 5.08304 27.467 5.43911 27.4193 5.82825H30.4967Z" fill="white" fill-opacity="0.8"/>
<path d="M0.22583 8.09641L3.61746 4.58096H0.306349V3.47662H5.18856V4.60301L1.79694 8.11845H5.23373V9.22079H0.22583V8.09641Z" fill="white" fill-opacity="0.8"/>
<path d="M9.04208 8.15918C9.61866 8.17181 10.1766 7.95053 10.5935 7.54388L11.3634 8.38967C10.8547 8.9228 10.1517 9.31764 9.05583 9.31764C7.17836 9.31764 5.96664 8.04695 5.96664 6.32731C5.95909 5.94222 6.02595 5.55939 6.1634 5.20069C6.30085 4.84198 6.50621 4.51443 6.76773 4.23673C7.02925 3.95904 7.34182 3.73665 7.68758 3.58227C8.03334 3.42788 8.40552 3.34453 8.78285 3.33698H8.88693C10.7507 3.33698 11.8072 4.78404 11.7149 6.79229H7.30797C7.46508 7.62606 8.03854 8.15718 9.04208 8.15718V8.15918ZM10.3854 5.82825C10.2675 5.0506 9.81192 4.47739 8.89872 4.47739C8.5151 4.45452 8.13731 4.58136 7.84193 4.8322C7.54655 5.08304 7.35566 5.43911 7.30797 5.82825H10.3854Z" fill="white" fill-opacity="0.8"/>
<path d="M19.0345 6.33312C19.0345 4.49523 20.3798 3.3468 21.8605 3.3468C22.2158 3.34211 22.5678 3.41683 22.8918 3.56571C23.2158 3.71459 23.504 3.93403 23.736 4.20863V0.817444H24.934V9.2052H23.736V8.40351C23.5083 8.68962 23.2205 8.91978 22.8938 9.07694C22.5671 9.23411 22.2099 9.31425 21.8488 9.31143C21.4761 9.30855 21.1076 9.23078 20.7644 9.08256C20.4212 8.93435 20.1099 8.71859 19.8484 8.44761C19.5869 8.17663 19.3803 7.85573 19.2403 7.50324C19.1003 7.15076 19.0297 6.77358 19.0326 6.39325C19.0326 6.3692 19.0326 6.34715 19.0326 6.32511L19.0345 6.33312ZM23.8028 6.31308C23.7953 5.82663 23.5997 5.36291 23.2587 5.02298C22.9176 4.68306 22.4587 4.49446 21.982 4.4983C21.5053 4.50213 21.0494 4.69808 20.7137 5.04345C20.3779 5.38883 20.1895 5.85563 20.1895 6.34214C20.1895 6.82866 20.3779 7.29546 20.7137 7.64083C21.0494 7.9862 21.5053 8.18216 21.982 8.18599C22.4587 8.18982 22.9176 8.00123 23.2587 7.6613C23.5997 7.32137 23.7953 6.85766 23.8028 6.3712V6.31308Z" fill="white" fill-opacity="0.8"/>
<path d="M32.6067 7.98701L33.6908 7.41179C33.8346 7.67254 34.0453 7.88834 34.3004 8.03595C34.5554 8.18357 34.8451 8.25743 35.1381 8.24957C35.8157 8.24957 36.1672 7.89482 36.1672 7.49196C36.1672 7.03299 35.5113 6.92877 34.7925 6.78046C33.8322 6.58003 32.8286 6.25134 32.8286 5.06883C32.8286 4.16091 33.6751 3.32314 35.0105 3.33316C36.0612 3.33316 36.8408 3.75806 37.2827 4.44752L36.2909 5.01071C36.1518 4.80055 35.9625 4.63007 35.7409 4.51539C35.5192 4.40071 35.2726 4.34562 35.0242 4.35532C34.3801 4.35532 34.0521 4.67801 34.0521 5.04478C34.0521 5.45766 34.5725 5.5739 35.3856 5.75629C36.3125 5.95671 37.3632 6.27338 37.3632 7.46791C37.3632 8.26961 36.6857 9.32986 35.0792 9.31783C33.9009 9.31783 33.078 8.83481 32.6047 7.98501" fill="white" fill-opacity="0.8"/>
<path d="M40.6185 6.6538L39.6679 7.71004V9.20521H38.47V0.817444H39.6679V6.30907L42.2112 3.45904H43.6703L41.4649 5.91825L43.7253 9.20521H42.3702L40.6185 6.6538Z" fill="white" fill-opacity="0.8"/>
<path d="M15.412 3.34484C13.9882 3.34484 12.7961 4.28683 12.7961 5.85014V9.20525H14.0177V5.99846C14.0177 5.05646 14.5479 4.49327 15.4533 4.49327C16.3586 4.49327 16.8103 5.05646 16.8103 5.99846V9.20525H18.026V5.84814C18.026 4.28483 16.8339 3.34283 15.4101 3.34283" fill="white" fill-opacity="0.8"/>
</g>
<defs>
<clipPath id="clip0_101_1029">
<rect width="43.5" height="8.5" fill="white" transform="translate(0.226196 0.817413)"/>
</clipPath>
</defs>
</svg>
