<svg width="73" height="8" viewBox="0 0 73 8" fill="none" xmlns="http://www.w3.org/2000/svg">
<g id="logo-pacific-funds" clip-path="url(#clip0_101_1048)">
<path id="Vector" d="M14.4768 6.91677C14.4768 6.86848 14.4768 6.79603 14.4768 6.74777C14.4495 6.74777 12.6782 6.84432 11.8061 6.84432C10.6616 6.84432 9.02655 6.82019 9.02655 6.82019L1.50525 6.7719C1.50525 6.74777 1.50525 6.65119 1.50525 6.62704L9.0538 6.6029C9.0538 6.6029 10.6889 6.62704 11.8334 6.62704C12.7054 6.62704 14.4495 6.62704 14.4768 6.62704C14.4768 6.55461 14.4495 6.43388 14.4495 6.3373C14.4222 6.3373 12.6782 6.45803 11.8334 6.45803C10.6889 6.45803 9.0538 6.38559 9.0538 6.38559H7.11896L4.55736 6.31317H1.5325C1.5325 6.28904 1.55975 6.19246 1.55975 6.1683C1.66876 6.19246 1.75051 6.21659 2.13202 6.21659C2.62254 6.21659 2.84055 6.12001 2.84055 6.12001C2.84055 6.12001 3.19482 6.21659 3.65807 6.21659C3.87609 6.21659 4.36662 6.02343 4.66637 6.09588C5.1569 6.21659 5.34764 6.02343 5.34764 6.02343C5.34764 6.02343 5.45665 6.14417 5.67466 6.19246C5.83818 6.21659 6.05616 6.12001 6.05616 6.12001C6.05616 6.12001 6.32868 6.28903 7.11896 6.28903C8.07276 6.28903 8.34525 5.8303 8.34525 5.8303H8.3725C8.3725 5.8303 8.34525 5.95101 8.39975 6.04759C8.50876 6.24075 8.80853 6.26488 8.80853 6.26488C8.78128 5.73372 9.02655 5.37156 9.02655 5.37156H9.0538L8.9993 5.5164C8.89029 5.90272 9.08105 6.24075 9.08105 6.24075L9.16278 6.19246C9.16278 6.19246 9.08105 5.95101 9.16278 5.61298C9.24454 5.27498 9.3808 5.10595 9.3808 5.10595H9.4353C9.4353 5.10595 9.35354 5.37156 9.35354 5.56469C9.35354 5.73372 9.46255 6.14417 9.81683 6.26488C10.0893 6.36146 10.3073 6.14417 10.3073 6.14417C10.3073 6.14417 10.9069 6.28903 11.3974 6.28903C12.5692 6.28903 12.8417 6.12001 12.8417 6.12001C12.8417 6.12001 12.9234 6.24075 13.523 6.24075C13.8772 6.24075 14.1497 6.21659 14.3132 6.19246C14.3677 6.19246 14.395 6.19246 14.4222 6.1683C14.4222 6.07172 14.395 5.9993 14.3677 5.90272C14.0407 4.28506 12.9779 2.88471 11.5064 1.99138L11.4246 2.20868C12.8689 3.05372 13.9317 4.38164 14.2315 5.95101C14.068 5.9993 13.8227 6.07172 13.523 6.07172C13.0597 6.07172 12.9507 5.95101 12.9507 5.95101C12.9507 5.95101 12.7872 6.04759 12.4874 6.04759C12.2149 6.04759 12.0242 5.87856 12.0242 5.87856C12.0242 5.87856 11.7516 6.12001 11.2611 6.12001C10.6889 6.12001 10.3891 5.80614 10.2801 5.66127C10.1711 5.5164 10.1166 5.39569 10.1166 5.39569H10.0893C10.0893 5.44398 10.1166 5.5164 10.1438 5.58885C10.2256 5.78201 10.2801 5.8303 10.3073 5.87856C10.3346 5.90272 10.3618 5.97514 10.2801 5.9993C10.2256 6.02343 10.1983 5.97514 10.1711 5.95101C10.1438 5.90272 10.0348 5.78201 9.98031 5.58885C9.89858 5.37156 9.89859 5.22669 9.87133 5.10595H9.81683C9.78958 5.20253 9.78958 5.37156 9.78958 5.56469C9.81683 5.78201 9.87133 5.92685 9.89858 5.97514C9.89858 5.97514 9.92584 5.9993 9.92584 6.02343C9.92584 6.09588 9.87133 6.12001 9.81683 6.12001C9.76232 6.12001 9.70782 6.07172 9.68057 6.02343C9.4353 5.66127 9.73507 4.93695 9.81683 4.71966C9.95306 4.4058 9.98031 4.0919 9.98031 4.0919C9.98031 4.0919 10.1438 3.85048 10.2256 3.68145C10.3346 3.46417 10.4163 3.27102 10.4981 3.19858C10.6071 3.10201 10.7978 2.86057 10.9886 2.54669C11.0159 2.49841 11.1794 2.16039 11.2066 2.08796C11.2339 2.03967 11.2611 1.96724 11.2884 1.91895C11.3701 1.62922 11.4519 1.2912 11.4519 1.24292C11.4519 1.17048 11.3156 1.12219 11.3156 1.12219C11.3156 1.12219 11.1794 1.07391 11.0976 1.07391C11.0431 1.07391 10.9886 1.12219 10.9341 1.14634C10.8523 1.17048 10.8251 1.14634 10.8251 1.14634C10.8251 1.14634 10.7161 1.09805 10.6616 1.12219C10.6071 1.12219 10.5526 1.19463 10.4981 1.19463C10.4163 1.21877 10.3891 1.21877 10.3891 1.21877C10.3891 1.21877 10.3073 1.19463 10.2528 1.19463C10.1983 1.21877 10.1438 1.24292 10.0348 1.31535C9.27179 1.07391 8.48151 0.953186 7.66398 0.953186C3.93059 0.953186 0.878477 3.60903 0.823975 6.91677C0.823975 6.9409 0.823975 7.08577 0.823975 7.08577H14.4768C14.4768 7.08577 14.4768 6.9409 14.4768 6.91677ZM5.78367 5.70956C5.75642 5.70956 5.78367 5.68543 5.75642 5.68543C5.94718 5.15424 6.38319 4.06777 7.09171 3.24687C7.17347 3.27102 7.22797 3.3193 7.30973 3.34345C6.79194 3.85048 6.11067 4.84037 5.78367 5.70956ZM6.19242 5.87856C6.32868 5.39569 6.68296 4.38164 7.44599 3.41588C7.52774 3.46417 7.58222 3.48831 7.66398 3.53661C7.14622 4.14019 6.51945 5.10595 6.24693 5.90272C6.21968 5.90272 6.21968 5.87856 6.19242 5.87856ZM6.73746 5.9993C6.71021 5.9993 6.73746 5.9993 6.71021 5.9993C6.81919 5.61298 7.11896 4.59893 7.82749 3.60903C7.90924 3.65732 7.96375 3.68145 8.01825 3.72974C7.52774 4.38164 6.9827 5.27498 6.73746 5.9993ZM7.25522 5.9993C7.22797 5.9993 7.22797 5.9993 7.22797 5.9993C7.33698 5.63714 7.58222 4.7438 8.18176 3.85048C8.26352 3.89877 8.34525 3.94706 8.3725 3.99535C7.9365 4.5748 7.47324 5.3474 7.25522 5.9993ZM9.0538 4.38164C8.91754 4.38164 8.72678 4.33335 8.67227 4.23677C8.69952 4.4058 8.91754 4.55064 9.1083 4.55064C9.0538 4.55064 9.02655 4.5748 8.97204 4.5748C8.72678 4.5748 8.50876 4.38164 8.50876 4.16435C8.50876 4.14019 8.50876 4.0919 8.50876 4.06777C8.69952 4.21264 9.1083 4.4058 9.35354 4.11606V4.14019C9.32629 4.26093 9.19003 4.38164 9.0538 4.38164ZM9.81683 3.44002C9.81683 3.51245 9.76232 3.53661 9.70782 3.56074C9.68057 3.5849 9.59881 3.60903 9.59881 3.63316H9.57156C9.57156 3.63316 9.54431 3.60903 9.51706 3.60903C9.51706 3.5849 9.51706 3.5849 9.51706 3.5849V3.56074V3.51245C9.51706 3.51245 9.4898 3.46417 9.51706 3.41588C9.51706 3.34345 9.59881 3.29516 9.59881 3.29516H9.62606C9.62606 3.29516 9.59881 3.34345 9.57156 3.39174C9.57156 3.41588 9.54431 3.48831 9.57156 3.53661V3.5849L9.59881 3.60903L9.62606 3.5849C9.68057 3.56074 9.68057 3.53661 9.68057 3.53661C9.68057 3.53661 9.62606 3.48831 9.65332 3.44002C9.68057 3.39174 9.76232 3.39174 9.76232 3.39174C9.78958 3.3193 9.76232 3.27102 9.76232 3.27102L9.81683 3.29516C9.78958 3.27102 9.81683 3.34345 9.81683 3.44002ZM10.1711 1.38778C10.2528 1.36363 10.2801 1.31535 10.3618 1.2912C10.4436 1.26706 10.4981 1.2912 10.5526 1.2912C10.6071 1.2912 10.6889 1.21877 10.7433 1.21877C10.7978 1.21877 10.8251 1.24292 10.8796 1.24292C10.9069 1.2912 11.0704 1.19463 11.0976 1.19463C11.1249 1.19463 11.2339 1.19463 11.2066 1.2912C11.1794 1.36363 11.1249 1.58093 11.0159 1.87066C10.9886 1.94309 10.9341 2.03967 10.8796 2.13625C10.8251 2.23282 10.7706 2.35354 10.6889 2.45012C10.3891 2.88471 10.0893 2.78813 9.51706 3.02958C9.0538 3.22273 8.86304 3.34345 8.80853 3.41588C8.75403 3.36759 8.72678 3.36759 8.67227 3.34345C8.75403 3.27102 8.94479 3.15029 9.32629 2.98129C9.73507 2.78813 10.4163 2.54669 10.5526 2.3294C10.5526 2.30525 10.5526 2.30525 10.5526 2.28111C10.3891 2.37769 10.2528 2.42597 10.1983 2.47426C9.54431 2.76399 9.29904 2.83642 8.9993 2.98129C8.86304 3.05372 8.64502 3.15029 8.50876 3.24687C8.48151 3.22273 8.427 3.19858 8.39975 3.17444C8.53601 3.07786 8.72678 2.98129 8.91754 2.88471C9.21728 2.76399 9.46255 2.64327 10.1711 2.28111C10.2256 2.25696 10.5799 2.06381 10.8523 1.87066C10.8523 1.84652 10.8523 1.82237 10.8796 1.79823C10.6344 1.91895 9.84408 2.30525 9.68057 2.37769C9.02655 2.66741 9.0538 2.64327 8.75403 2.78813C8.56326 2.88471 8.3725 2.98129 8.23627 3.07786C8.20902 3.05372 8.15451 3.02958 8.12726 3.00543C8.29077 2.90885 8.427 2.81228 8.64502 2.7157C8.94479 2.57084 8.97204 2.54669 9.65332 2.25696C9.98031 2.1121 10.5799 1.74994 10.9069 1.58093C10.9069 1.55679 10.9069 1.55679 10.9069 1.53264C10.5799 1.70165 9.62606 2.13625 9.4898 2.20868C8.83578 2.47426 8.75403 2.49841 8.45426 2.64327C8.29077 2.7157 8.12726 2.81228 7.991 2.88471C7.96375 2.86057 7.9365 2.83642 7.90924 2.81228C8.01825 2.73985 8.20902 2.61912 8.45426 2.49841C8.75403 2.35354 8.80853 2.3294 9.46255 2.03967C9.54431 2.01552 9.87133 1.84652 10.1711 1.67751C10.2528 1.62922 10.3618 1.58093 10.4436 1.53264C10.5254 1.48436 10.5799 1.43607 10.6344 1.41192L10.6071 1.38778C10.4708 1.43607 10.2801 1.53264 10.2256 1.55679C9.87133 1.72579 9.4353 1.91895 9.29904 1.96724C8.64502 2.25696 8.56326 2.28111 8.26352 2.42597C8.10001 2.49841 7.90924 2.59498 7.80024 2.69156C7.77298 2.66741 7.74573 2.64327 7.71848 2.61912C7.85474 2.52255 8.0455 2.40183 8.26352 2.30525C8.56326 2.16039 8.61777 2.13625 9.27179 1.84652C9.3808 1.79823 9.4898 1.74994 9.57156 1.70165C9.59881 1.70165 9.89859 1.55679 10.1711 1.38778ZM7.9365 1.24292C8.56326 1.24292 9.19003 1.31535 9.76232 1.48436C9.65332 1.55679 9.4898 1.62922 9.27179 1.72579C8.50876 2.06381 8.427 2.08796 8.10001 2.23282C7.88199 2.3294 7.71848 2.42597 7.58222 2.52255C7.58222 2.52255 7.44599 2.35354 7.36423 2.30525C7.28248 2.25696 7.09171 2.20868 7.03721 2.18453C6.9282 2.13625 6.90095 2.08796 6.73746 2.03967C6.6012 1.99138 6.4922 2.01552 6.41044 2.01552C6.32868 1.99138 6.24693 1.96724 6.11067 1.96724C6.02891 1.96724 5.91993 2.01552 5.83818 2.01552C5.72917 2.01552 5.64741 1.99138 5.56566 1.99138C5.4839 2.01552 5.37489 2.08796 5.26588 2.08796C5.18413 2.1121 5.07515 2.08796 5.02064 2.08796C4.96614 2.1121 4.82988 2.20868 4.74812 2.23282C4.69362 2.25696 4.53011 2.25696 4.55736 2.37769C4.55736 2.47426 4.80263 2.49841 4.80263 2.49841C4.80263 2.49841 5.86543 2.61912 6.90095 3.10201C6.76469 3.27102 6.6012 3.44002 6.4922 3.63316C6.41044 3.60903 6.30143 3.5849 6.24693 3.5849C6.13792 3.5849 6.02891 3.63316 5.94718 3.60903C5.78367 3.60903 5.78367 3.5849 5.59291 3.60903C5.45665 3.63316 5.45665 3.65732 5.34764 3.68145C5.26588 3.70561 5.18413 3.68145 5.0479 3.70561C4.99339 3.72974 4.88438 3.82632 4.80263 3.85048C4.74812 3.87461 4.63912 3.87461 4.55736 3.9229C4.50286 3.97119 4.50285 4.01948 4.36662 4.06777C4.28487 4.11606 4.23036 4.0919 4.14861 4.16435C4.0941 4.26093 4.0941 4.33335 3.95784 4.42993C3.79433 4.55064 3.79433 4.64722 3.82158 4.67137C3.87609 4.76795 4.12136 4.67137 4.12136 4.67137C4.12136 4.67137 4.99339 4.4058 6.02891 4.35751C5.75642 4.84037 5.5384 5.29911 5.40214 5.61298C5.37489 5.68543 5.34764 5.75785 5.32039 5.80614C5.29314 5.80614 5.29314 5.80614 5.29314 5.80614C5.23863 5.75785 5.23863 5.68543 5.26588 5.5164C5.29313 5.3474 5.45665 5.00938 5.51115 4.93695H5.45665C5.40214 5.00938 5.23863 5.27498 5.21138 5.32327C5.1569 5.41985 5.12965 5.44398 5.02064 5.66127C4.99339 5.70956 4.93889 5.80614 4.85713 5.80614C4.80263 5.80614 4.74812 5.78201 4.74812 5.73372C4.74812 5.70956 4.77538 5.66127 4.80263 5.66127C4.93889 5.46811 5.0479 5.27498 5.07515 5.1784H5.02064C5.02064 5.1784 4.63912 5.95101 3.82158 5.95101C3.54908 5.95101 3.24932 5.8303 3.24932 5.8303C3.24932 5.8303 2.8678 5.97514 2.35003 5.97514C1.94127 5.97514 1.69601 5.90272 1.587 5.87856C2.15928 3.27102 4.69362 1.24292 7.9365 1.24292Z" fill="white" fill-opacity="0.8"/>
<path id="Vector_2" d="M26.8495 6.94089L26.795 6.91676C26.468 6.77189 26.359 6.36145 26.1955 5.99929L24.5332 2.08795H22.9526V2.20867L23.0344 2.23282C23.0344 2.23282 23.1161 2.25696 23.1434 2.2811C23.2251 2.32939 23.3069 2.42597 23.1979 2.66741C23.1979 2.78813 23.1434 2.88471 23.1434 2.88471L21.8353 5.99929C21.6991 6.33732 21.5901 6.77189 21.2631 6.91676L21.1541 6.96505V7.08576H22.9254V6.96505L22.7891 6.91676C22.6256 6.86847 22.5984 6.72361 22.7619 6.31316L22.9526 5.75784H24.8329C24.8874 5.87858 24.9419 6.04758 25.0237 6.28903C25.1055 6.53045 25.2417 6.84434 25.0509 6.94089L24.9419 6.98918V7.10992H26.8495V6.94089ZM24.5604 4.93694H23.3069L23.9337 3.39173L24.5604 4.93694Z" fill="white" fill-opacity="0.8"/>
<path id="Vector_3" d="M38.3494 2.08795V2.20867L38.4856 2.25696C38.7036 2.32939 38.6764 2.78813 38.6764 3.07786V6.09587C38.6764 6.33732 38.6764 6.84434 38.4856 6.91676L38.3494 6.96505V7.08576H40.1477V6.96505L40.0114 6.91676C39.7934 6.84434 39.8207 6.33732 39.8207 6.09587V3.07786C39.8207 2.66741 39.8752 2.30525 40.0114 2.25696L40.1477 2.20867V2.08795H38.3494Z" fill="white" fill-opacity="0.8"/>
<path id="Vector_4" d="M31.5896 2.08795V2.20867L31.7259 2.25696C31.9439 2.32939 31.9166 2.78813 31.9166 3.07786V6.09587C31.9166 6.33732 31.9166 6.84434 31.7259 6.91676L31.5896 6.96505V7.08576H33.3882V6.96505L33.252 6.91676C33.034 6.84434 33.0612 6.33732 33.0612 6.09587V3.07786C33.0612 2.66741 33.1157 2.30525 33.252 2.25696L33.3882 2.20867V2.08795H31.5896Z" fill="white" fill-opacity="0.8"/>
<path id="Vector_5" d="M21.4802 1.65303C21.0714 1.29087 20.4446 1.09772 19.7634 1.09772H17.447V1.21844L17.556 1.24258C17.8558 1.3633 17.8285 2.01519 17.8285 2.49807V5.66093V5.78167C17.8285 6.14383 17.8285 6.79572 17.556 6.8923L17.447 6.94059V7.0613H19.5726V6.94059L19.4909 6.8923C19.1093 6.67499 19.1093 6.19212 19.1093 5.68509V4.62275L19.3274 4.69519C19.3274 4.69519 19.6816 4.8159 20.0086 4.8159C20.9897 4.8159 22.0524 4.2123 22.0524 2.90852C22.0524 2.42564 21.8617 1.99105 21.4802 1.65303ZM19.4091 4.35717L19.2183 4.3813H19.1093V2.13591C19.2456 2.11177 19.4091 2.11177 19.6271 2.11177C20.0631 2.11177 20.4174 2.20835 20.6081 2.4015C20.7989 2.57051 20.8807 2.7878 20.8807 3.10168C20.8807 3.85014 20.1176 4.30888 19.4091 4.35717Z" fill="white" fill-opacity="0.8"/>
<path id="Vector_6" d="M50.4483 1.09788H49.4945H46.7693V1.24275L46.9328 1.29104C47.1781 1.38761 47.1781 1.94293 47.1781 2.2568V5.87842C47.1781 6.16813 47.1781 6.77173 46.9328 6.86831L46.7693 6.9166V7.06147H48.8132V6.9166L48.6497 6.86831C48.4044 6.77173 48.4044 6.19229 48.4044 5.87842V4.69534H49.6035C49.6035 4.69534 50.1213 4.64705 50.203 4.84021L50.2303 4.91265L50.3666 4.93678L50.4483 3.34328H50.2576L50.2303 3.43986C50.1758 3.56057 49.7125 3.60886 49.5762 3.58473H48.3772C48.3772 3.05355 48.3772 2.40166 48.3772 2.11193H49.8488C50.203 2.11193 50.3938 2.18437 50.4483 2.35338L50.4753 2.44995H50.6388L51.0203 1.02545C51.0748 1.07374 50.5843 1.09788 50.4483 1.09788Z" fill="white" fill-opacity="0.8"/>
<path id="Vector_7" d="M30.9906 5.73339L30.9633 5.75755C30.9088 5.80584 30.8543 5.82997 30.8543 5.82997C30.5273 6.02313 29.9823 6.24042 29.4374 6.24042C29.0014 6.24042 28.6471 6.11971 28.3473 5.87826C27.9931 5.56439 27.8023 5.05736 27.8023 4.47791C27.8023 3.56044 28.4018 2.93268 29.2739 2.93268C29.6826 2.93268 30.0913 3.0534 30.5001 3.29484L30.6091 3.36727L30.8271 3.488V3.2707V2.28079V2.18422L30.6636 2.16007C30.1185 2.03935 29.6826 1.96692 29.3011 1.96692C28.5381 1.96692 27.8841 2.20836 27.3936 2.64295C26.8758 3.10169 26.576 3.80186 26.576 4.57447C26.576 5.37123 26.8485 6.02313 27.3663 6.48186C27.8841 6.9406 28.6471 7.18205 29.5191 7.18205C29.9551 7.18205 30.3638 7.1096 30.6908 6.9406H30.7181L30.7726 6.91644L30.7998 6.86815L31.1814 5.70926H30.9906V5.73339Z" fill="white" fill-opacity="0.8"/>
<path id="Vector_8" d="M44.9165 5.73333L44.753 5.82991C44.426 6.02307 43.881 6.24035 43.3359 6.24035C42.8999 6.24035 42.5456 6.11964 42.2458 5.8782C41.8916 5.56433 41.7008 5.0573 41.7008 4.47785C41.7008 3.56038 42.3003 2.93262 43.1724 2.93262C43.5812 2.93262 43.99 3.05334 44.3987 3.29478L44.7258 3.48793V2.28073V2.18416L44.5895 2.16001C44.0445 2.03929 43.6084 1.96686 43.2269 1.96686C42.4639 1.96686 41.8098 2.2083 41.3193 2.64289C40.8015 3.10163 40.5017 3.8018 40.5017 4.5744C40.5017 5.37117 40.7742 6.02307 41.292 6.4818C41.8098 6.94054 42.5729 7.18199 43.4449 7.18199C43.881 7.18199 44.2897 7.10954 44.6168 6.94054L44.6985 6.91638L45.1073 5.7092H44.9165V5.73333Z" fill="white" fill-opacity="0.8"/>
<path id="Vector_9" d="M37.3946 2.08741H35.896H34.0974V2.20813L34.2337 2.25642C34.4517 2.32885 34.4244 2.78759 34.4244 3.07732V6.09531C34.4244 6.33676 34.4244 6.84379 34.2337 6.91624L34.0974 6.9645V7.08524H35.896V6.9645L35.7598 6.91624C35.5418 6.84379 35.569 6.33676 35.569 6.09531V5.10542H36.5501C36.5501 5.10542 36.9858 5.08129 37.0403 5.22613L37.0676 5.29857L37.1766 5.32271L37.2584 3.99478H37.1221L37.0948 4.06723C37.0676 4.16381 36.6591 4.2121 36.5501 4.18794H35.5418C35.5418 3.75336 35.5418 3.19804 35.5418 2.9566H36.8768C37.1766 2.9566 37.3401 3.02903 37.3946 3.14975L37.4219 3.22218H37.5581L37.8851 2.03912C37.9397 2.03912 37.5036 2.08741 37.3946 2.08741Z" fill="white" fill-opacity="0.8"/>
<path id="Vector_10" d="M60.5036 2.08765V2.20837L60.6126 2.25666C60.8579 2.40152 60.8852 2.61882 60.8852 3.02927V5.32295C60.1221 4.35719 58.4328 2.06351 58.4328 2.06351H57.1247V2.18423L57.2337 2.23252C57.4789 2.37738 57.5062 2.61882 57.5062 3.02927V6.02314C57.5062 6.43358 57.5062 6.74745 57.2337 6.89232L57.1519 6.94061V7.06132H58.8143V6.94061L58.7053 6.89232C58.46 6.84403 58.46 6.43358 58.46 6.02314V3.85016L60.0948 5.92656C60.3946 6.31287 60.8852 6.86816 61.4029 7.01303C61.8117 7.13377 61.8935 7.10961 61.8935 7.10961V3.05341C61.8935 2.64297 61.8935 2.40152 62.166 2.25666L62.275 2.20837V2.08765H60.5036Z" fill="white" fill-opacity="0.8"/>
<path id="Vector_11" d="M67.2072 2.812C66.6621 2.32912 65.8446 2.06354 64.8365 2.06354H62.7926V2.18426L62.9016 2.2084L62.9561 2.23255C63.2014 2.30498 63.1469 2.812 63.1469 3.07759V6.09559C63.1469 6.45775 63.1469 6.77164 62.8471 6.94064L62.7654 6.98893V7.08551H64.782C66.6349 7.08551 67.943 6.0473 67.943 4.55038C67.943 3.85019 67.6977 3.2466 67.2072 2.812ZM66.2534 5.83001C65.8718 6.14388 65.3543 6.33704 64.7003 6.33704C64.564 6.33704 64.4823 6.3129 64.3188 6.28875V2.90858C64.5368 2.86029 64.6458 2.83615 64.8365 2.83615C65.4633 2.83615 65.9263 2.98101 66.2534 3.27074C66.5804 3.56048 66.7439 4.04335 66.7439 4.6228C66.7439 5.10569 66.5531 5.54027 66.2534 5.83001Z" fill="white" fill-opacity="0.8"/>
<path id="Vector_12" d="M56.1151 6.16829V3.02957C56.1151 2.66741 56.1151 2.32939 56.3876 2.25696L56.4967 2.23282L56.4149 2.08795H54.5618V2.20867L54.6708 2.23282C54.9433 2.32939 54.916 2.7157 54.916 2.98128V5.37155C54.916 5.61297 54.916 5.73371 54.7798 5.90271C54.5618 6.16829 54.153 6.33732 53.7169 6.33732C53.363 6.33732 53.1177 6.26487 52.9269 6.09587C52.6817 5.90271 52.5727 5.54055 52.5727 5.08181V2.95714C52.5727 2.66741 52.5727 2.2811 52.8179 2.20867L52.9269 2.18453V2.08795H51.0193V2.20867L51.1283 2.23282C51.3736 2.30525 51.4008 2.76399 51.3736 3.12615V5.17839C51.3736 5.68542 51.3736 6.19245 51.8369 6.65118C52.2184 7.01334 52.7907 7.2065 53.4447 7.2065C53.9077 7.2065 54.48 6.98918 54.8888 6.69947V7.08576H56.4421V6.96505L56.3331 6.94089C56.1151 6.84434 56.0879 6.53045 56.1151 6.16829Z" fill="white" fill-opacity="0.8"/>
<path id="Vector_13" d="M72.0316 5.5646C72.0316 5.95089 71.8408 6.33721 71.4865 6.62695C71.0777 6.9891 70.5054 7.18223 69.8787 7.18223C69.3881 7.18223 68.9248 7.10981 68.4888 6.96495H68.4615L68.407 6.94081V6.89252V6.86837L68.189 5.97505L68.1618 5.83018L68.1345 5.70947H68.2708L68.4615 5.9026C68.8703 6.24063 69.4426 6.3855 69.9604 6.3855C70.3147 6.3855 70.8325 6.16821 70.8325 5.80602C70.8325 5.39557 70.3964 5.20244 69.8241 4.96099C69.1428 4.67126 68.3253 4.3091 68.3253 3.39163C68.3253 2.35343 69.4154 1.99127 70.3419 1.99127C70.7507 1.99127 71.1322 2.03956 71.4865 2.16028H71.5138L71.5955 2.18442V2.25686V2.281V2.90875V3.12604V3.27091L71.4048 3.15019L71.214 3.05361C71.0505 2.95704 70.6417 2.81217 70.2874 2.81217C70.1512 2.81217 69.8514 2.83632 69.6606 3.00532C69.5789 3.07776 69.5244 3.17433 69.5244 3.3192C69.5244 3.68136 70.0149 3.89865 70.5327 4.11594C71.1867 4.40568 72.0316 4.76784 72.0316 5.5646Z" fill="white" fill-opacity="0.8"/>
</g>
<defs>
<clipPath id="clip0_101_1048">
<rect width="71.5" height="6.5" fill="white" transform="translate(0.678589 0.817413)"/>
</clipPath>
</defs>
</svg>
