<svg width="35" height="12" viewBox="0 0 35 12" fill="none" xmlns="http://www.w3.org/2000/svg">
<g id="logo-rakuten" clip-path="url(#clip0_101_1038)">
<path id="Vector" d="M9.26534 11.3177L27.8921 9.61725H7.65088L9.26534 11.3177Z" fill="white" fill-opacity="0.8"/>
<path id="Vector_2" d="M32.2119 2.6026C31.8298 2.612 31.4583 2.73748 31.1423 2.96394V2.73013H29.8911V8.51151H31.1423V5.13195C31.1335 4.98389 31.1536 4.83549 31.2013 4.69592C31.2491 4.55635 31.3235 4.42856 31.4199 4.32042C31.5163 4.21229 31.6328 4.12611 31.762 4.0672C31.8913 4.00829 32.0307 3.9779 32.1715 3.9779C32.3124 3.9779 32.4518 4.00829 32.581 4.0672C32.7103 4.12611 32.8267 4.21229 32.9232 4.32042C33.0196 4.42856 33.094 4.55635 33.1417 4.69592C33.1895 4.83549 33.2096 4.98389 33.2008 5.13195V8.53276H34.452V5.13195C34.452 3.72912 33.5438 2.6026 32.2119 2.6026Z" fill="white" fill-opacity="0.8"/>
<path id="Vector_3" d="M27.0042 2.58209C25.5512 2.58209 24.522 3.92116 24.522 5.62157C24.522 7.40699 25.8135 8.66104 27.1253 8.66104C27.7913 8.66104 28.6187 8.42723 29.325 7.36448L28.2151 6.68432C27.3675 8.00213 25.9346 7.34323 25.7732 6.00416H29.3654C29.6882 3.96367 28.4169 2.58209 27.0042 2.58209ZM25.8539 4.87764C26.1163 3.53857 27.8518 3.45355 28.094 4.87764H25.8539Z" fill="white" fill-opacity="0.8"/>
<path id="Vector_4" d="M21.8598 6.59898C21.8487 6.86393 21.8884 7.12851 21.9764 7.37696C22.0645 7.62541 22.1992 7.85262 22.3725 8.04504C22.5458 8.23746 22.7541 8.39114 22.985 8.49692C23.2159 8.60271 23.4646 8.65841 23.7164 8.66072C24.1418 8.64503 24.5573 8.52105 24.9273 8.29939L24.1201 7.15161C23.9961 7.24476 23.8485 7.29659 23.6963 7.3004C23.6131 7.29792 23.5313 7.27742 23.456 7.24017C23.3807 7.20293 23.3135 7.14974 23.2586 7.08393C23.2037 7.01811 23.1622 6.94108 23.1369 6.85765C23.1115 6.77421 23.1027 6.68616 23.111 6.59898V4.11214H24.1806V2.73056H23.111V1.28522H21.8598V2.73056H21.1938V4.11214H21.8598V6.59898Z" fill="white" fill-opacity="0.8"/>
<path id="Vector_5" d="M18.4476 8.66069C18.8297 8.65129 19.2011 8.52582 19.5172 8.29936V8.51191H20.7684V2.73053H19.5172V6.13134C19.526 6.2794 19.5059 6.4278 19.4581 6.56737C19.4104 6.70694 19.336 6.83474 19.2396 6.94287C19.1432 7.051 19.0267 7.13718 18.8974 7.19609C18.7682 7.255 18.6288 7.28539 18.4879 7.28539C18.3471 7.28539 18.2077 7.255 18.0785 7.19609C17.9492 7.13718 17.8327 7.051 17.7363 6.94287C17.6399 6.83474 17.5655 6.70694 17.5177 6.56737C17.47 6.4278 17.4499 6.2794 17.4587 6.13134V2.73053H16.2075V6.13134C16.2075 7.53417 17.1157 8.66069 18.4476 8.66069Z" fill="white" fill-opacity="0.8"/>
<path id="Vector_6" d="M12.7582 6.15246L14.6148 8.53303H16.3504L13.8681 5.45105L16.0073 2.7304H14.2718L12.7582 4.74963V0.817444H11.4868V8.53303H12.7582V6.15246Z" fill="white" fill-opacity="0.8"/>
<path id="Vector_7" d="M9.52885 8.25719V8.51225H10.7801V2.73088H9.52885V2.98594C9.18787 2.72678 8.77884 2.58566 8.35837 2.58209C6.94572 2.58209 5.85596 3.94242 5.85596 5.62157C5.85596 7.30072 6.92554 8.66104 8.35837 8.66104C8.77935 8.66078 9.18932 8.51933 9.52885 8.25719ZM7.12734 5.64282C7.12734 4.72885 7.63186 4.00618 8.33819 4.00618C9.04451 4.00618 9.52885 4.72885 9.52885 5.64282C9.52885 6.55679 9.04451 7.27946 8.33819 7.27946C7.63186 7.27946 7.12734 6.55679 7.12734 5.64282Z" fill="white" fill-opacity="0.8"/>
<path id="Vector_8" d="M5.45196 3.77206C5.45143 3.11268 5.20249 2.48047 4.75981 2.01422C4.31712 1.54797 3.71687 1.28578 3.09082 1.28522H0.95166V8.51194H2.26341V6.28016H3.17154L4.76582 8.51194H6.40046L4.46311 5.81255C4.77228 5.58197 5.02375 5.27587 5.19597 4.92049C5.3682 4.5651 5.45604 4.17104 5.45196 3.77206ZM3.111 4.91983H2.26341V2.6668H3.111C3.39467 2.6668 3.66672 2.78548 3.8673 2.99675C4.06789 3.20801 4.18058 3.49454 4.18058 3.79331C4.18058 4.09209 4.06789 4.37862 3.8673 4.58988C3.66672 4.80115 3.39467 4.91983 3.111 4.91983Z" fill="white" fill-opacity="0.8"/>
</g>
<defs>
<clipPath id="clip0_101_1038">
<rect width="33.5" height="10.5" fill="white" transform="translate(0.952393 0.817413)"/>
</clipPath>
</defs>
</svg>
