<svg width="186" height="25" viewBox="0 0 186 25" fill="none" xmlns="http://www.w3.org/2000/svg">
<path d="M34.9 17.6328C34.9 22.0918 32.2418 24.75 27.7828 24.75H26.325C25.6513 24.75 25.1 24.1987 25.1 23.525V16.4567C25.1 16.126 25.3695 15.8442 25.7003 15.8442L27.8563 15.8075C28.0278 15.7952 28.1748 15.6728 28.2115 15.5013L28.6403 13.1615C28.677 12.941 28.5055 12.7327 28.2728 12.7327L25.6635 12.7695C25.3205 12.7695 25.051 12.5 25.0388 12.1692L24.9898 9.168C24.9898 8.972 25.149 8.80051 25.3573 8.80051L28.2973 8.7515C28.5055 8.7515 28.6648 8.59226 28.6648 8.38401L28.6158 5.44399C28.6158 5.23574 28.4565 5.0765 28.2483 5.0765L24.9408 5.12551C22.9073 5.16226 21.2903 6.82825 21.327 8.86175L21.3883 12.2305C21.4005 12.5735 21.131 12.843 20.788 12.8553L19.318 12.8798C19.1098 12.8798 18.9505 13.039 18.9505 13.2472L18.9873 15.5748C18.9873 15.783 19.1465 15.9423 19.3548 15.9423L20.8248 15.9178C21.1678 15.9178 21.4373 16.1873 21.4495 16.518L21.5598 23.5005C21.572 24.1865 21.0208 24.75 20.3348 24.75H17.5173C13.0583 24.75 10.4 22.0918 10.4 17.6205V7.36725C10.4 2.90825 13.0583 0.25 17.5173 0.25H27.7828C32.2418 0.25 34.9 2.90825 34.9 7.36725V17.6328Z" fill="#CACACA"/>
<path d="M81.0533 2.62267C80.1521 3.01773 79.1874 3.28953 78.1707 3.41279C79.2081 2.79034 80.0013 1.80575 80.3795 0.632812C79.4064 1.19937 78.3299 1.60975 77.1853 1.84173C76.2727 0.864796 74.9681 0.25 73.5203 0.25C70.7449 0.25 68.4955 2.49864 68.4955 5.2702C68.4955 5.66909 68.5437 6.0519 68.6272 6.41481C64.4522 6.21957 60.7512 4.21364 58.2759 1.1833C57.8411 1.92136 57.5938 2.77886 57.5938 3.71215C57.5938 5.45854 58.4826 6.98979 59.8263 7.89017C59.0048 7.86643 58.2315 7.63904 57.5539 7.26465V7.32514C57.5539 9.76059 59.2843 11.791 61.5811 12.2535C61.1623 12.3645 60.7152 12.4288 60.2612 12.4288C59.9389 12.4288 59.6311 12.3974 59.3241 12.3407C59.9703 14.3344 61.82 15.7861 64.025 15.8297C62.3108 17.1734 60.1379 17.9742 57.7966 17.9742C57.3978 17.9742 56.9996 17.9551 56.6 17.9068C58.8333 19.3309 61.4693 20.1639 64.3167 20.1639C73.5555 20.1639 78.604 12.5115 78.604 5.88423C78.604 5.67292 78.604 5.45778 78.588 5.24187C79.5733 4.53979 80.4262 3.65014 81.1 2.64181L81.0533 2.62267Z" fill="#CACACA"/>
<path fill-rule="evenodd" clip-rule="evenodd" d="M105.133 12.4994C105.134 10.3896 105.808 8.33504 107.056 6.63437C108.305 4.9337 110.063 3.67558 112.076 3.04291C114.089 2.41025 116.251 2.43601 118.248 3.11645C120.245 3.7969 121.973 5.09657 123.181 6.82651C124.389 8.55645 125.013 10.6265 124.964 12.7357C124.914 14.8449 124.193 16.8833 122.906 18.5547C121.618 20.2259 119.831 21.443 117.804 22.0289C115.777 22.6148 113.616 22.5389 111.635 21.8125C112.308 20.0084 112.961 18.197 113.594 16.3784C114.264 16.8567 115.128 17.1659 116.217 17.1659C118.474 17.1659 120.854 15.6785 121.443 12.7281C122.186 9.02408 119.22 5.49975 115.05 5.49975C113.296 5.49975 111.572 6.20439 110.282 7.32199C108.989 8.4431 108.05 10.0577 108.05 11.9161C108.05 12.8203 108.323 13.827 108.973 14.4896C109.193 14.7064 109.49 14.828 109.799 14.8282C110.108 14.8284 110.404 14.7072 110.625 14.4908C110.839 14.2765 110.962 13.9872 110.967 13.6841C110.971 13.381 110.858 13.0879 110.65 12.8669C109.733 11.7236 110.942 9.83838 111.81 9.08591C112.712 8.30428 113.903 7.83297 115.05 7.83297C117.881 7.83297 119.581 10.1417 119.157 12.2708C118.802 14.037 117.458 14.8326 116.217 14.8326C115.262 14.8326 114.749 14.4301 114.42 13.9086C114.6 13.3441 114.752 12.8308 114.862 12.4131C115.086 11.5533 115.221 10.5162 114.448 9.87104C113.873 9.39273 113.194 9.49772 112.778 9.70654C112.005 10.0915 111.55 10.9944 111.55 11.9161C111.55 12.4306 111.63 13.2286 111.92 14.0533C111.167 16.2986 110.374 18.5303 109.542 20.7473C108.185 19.8418 107.072 18.6152 106.303 17.1764C105.534 15.7375 105.132 14.1309 105.133 12.4994ZM115.05 0.25C108.284 0.25 102.8 5.73424 102.8 12.4994C102.8 19.2646 108.284 24.7488 115.05 24.7488C121.815 24.7488 127.3 19.2646 127.3 12.4994C127.3 5.73424 121.815 0.25 115.05 0.25Z" fill="#CACACA"/>
<path fill-rule="evenodd" clip-rule="evenodd" d="M156.2 0.3235C157.506 0.263609 157.923 0.25 161.25 0.25C164.578 0.25 164.994 0.264288 166.3 0.3235C167.604 0.382712 168.495 0.590283 169.275 0.893125C170.092 1.20083 170.832 1.68296 171.444 2.30596C172.067 2.91783 172.549 3.65824 172.857 4.47557C173.16 5.2548 173.367 6.14566 173.427 7.44959C173.487 8.75627 173.5 9.17277 173.5 12.5C173.5 15.8272 173.486 16.2437 173.427 17.5505C173.367 18.8543 173.16 19.7452 172.857 20.5244C172.544 21.3296 172.125 22.0135 171.444 22.694C170.832 23.3171 170.092 23.7993 169.275 24.1069C168.495 24.4097 167.604 24.6166 166.301 24.6765C164.994 24.7364 164.577 24.75 161.25 24.75C157.923 24.75 157.506 24.7357 156.2 24.6765C154.896 24.6173 154.005 24.4097 153.226 24.1069C152.421 23.7938 151.737 23.3745 151.056 22.694C150.433 22.0822 149.951 21.3417 149.643 20.5244C149.34 19.7452 149.134 18.8543 149.074 17.5505C149.014 16.2437 149 15.8279 149 12.5C149 9.17209 149.014 8.75627 149.074 7.45028C149.133 6.14566 149.34 5.2548 149.643 4.47557C149.951 3.6583 150.433 2.91792 151.056 2.30596C151.668 1.68285 152.408 1.20069 153.226 0.893125C154.005 0.590283 154.896 0.383391 156.2 0.3235ZM166.2 2.5285C164.909 2.46997 164.521 2.45704 161.25 2.45704C157.979 2.45704 157.591 2.46997 156.3 2.5285C155.105 2.58295 154.457 2.78234 154.025 2.95045C153.454 3.1723 153.045 3.43772 152.617 3.86647C152.189 4.29522 151.922 4.70355 151.701 5.27522C151.532 5.7067 151.333 6.35527 151.279 7.54964C151.22 8.84134 151.207 9.22925 151.207 12.5C151.207 15.7708 151.22 16.1586 151.279 17.4503C151.333 18.6447 151.532 19.2933 151.701 19.7248C151.897 20.2569 152.21 20.7382 152.617 21.1336C153.012 21.5403 153.493 21.8533 154.025 22.0495C154.457 22.2177 155.105 22.417 156.3 22.4715C157.591 22.5301 157.979 22.543 161.25 22.543C164.522 22.543 164.909 22.5301 166.2 22.4715C167.395 22.417 168.043 22.2177 168.475 22.0495C169.047 21.8277 169.455 21.5623 169.884 21.1336C170.29 20.7383 170.603 20.2569 170.8 19.7248C170.968 19.2933 171.167 18.6447 171.222 17.4503C171.28 16.1586 171.293 15.7708 171.293 12.5C171.293 9.22925 171.28 8.84134 171.222 7.54964C171.167 6.35527 170.968 5.7067 170.8 5.27522C170.578 4.70355 170.312 4.29522 169.884 3.86647C169.455 3.43841 169.047 3.1723 168.475 2.95045C168.043 2.78234 167.395 2.58295 166.2 2.5285ZM159.686 16.2762C160.182 16.4817 160.713 16.5874 161.25 16.5874C162.334 16.5874 163.374 16.1567 164.14 15.3902C164.907 14.6237 165.338 13.584 165.338 12.5C165.338 11.416 164.907 10.3763 164.14 9.60976C163.374 8.84322 162.334 8.41258 161.25 8.41258C160.713 8.41258 160.182 8.5183 159.686 8.72371C159.19 8.92912 158.739 9.2302 158.36 9.60976C157.98 9.98931 157.679 10.4399 157.474 10.9358C157.268 11.4317 157.163 11.9632 157.163 12.5C157.163 13.0368 157.268 13.5683 157.474 14.0642C157.679 14.5601 157.98 15.0107 158.36 15.3902C158.739 15.7697 159.19 16.0709 159.686 16.2762ZM156.798 8.04769C157.979 6.86687 159.58 6.20349 161.25 6.20349C162.92 6.20349 164.522 6.86687 165.702 8.04769C166.883 9.22852 167.547 10.8301 167.547 12.5C167.547 14.1699 166.883 15.7714 165.702 16.9523C164.522 18.1331 162.92 18.7965 161.25 18.7965C159.58 18.7965 157.979 18.1331 156.798 16.9523C155.617 15.7714 154.954 14.1699 154.954 12.5C154.954 10.8301 155.617 9.22852 156.798 8.04769ZM168.943 7.1416C169.222 6.86247 169.379 6.4839 169.379 6.08916C169.379 5.69441 169.222 5.31584 168.943 5.03672C168.664 4.7576 168.285 4.60079 167.89 4.60079C167.496 4.60079 167.117 4.7576 166.838 5.03672C166.559 5.31584 166.402 5.69441 166.402 6.08916C166.402 6.4839 166.559 6.86247 166.838 7.1416C167.117 7.42073 167.496 7.57754 167.89 7.57754C168.285 7.57754 168.664 7.42073 168.943 7.1416Z" fill="#F9F9F9"/>
</svg>
