<svg width="119" height="26" viewBox="0 0 119 26" fill="none" xmlns="http://www.w3.org/2000/svg">
<path d="M18.3594 1.70044C15.8219 1.70044 13.6187 3.12388 12.5 5.2145C11.3813 3.12388 9.17813 1.70044 6.64062 1.70044C2.97344 1.70044 0 4.67388 0 8.34106C0 17.3254 12.5 23.5754 12.5 23.5754C12.5 23.5754 25 17.3254 25 8.34106C25 4.67388 22.0266 1.70044 18.3594 1.70044Z" fill="#030303" fill-opacity="0.82"/>
<path d="M54.5 4.28872V5.95539H70.3333V9.25461L68.4844 15.1221H53.9756L51.8923 0.120026H47V1.78669H50.441L52.5244 16.7887H69.7067L72 9.51096V4.28872H54.5Z" fill="#030303" fill-opacity="0.82"/>
<path d="M55.3846 18.4713C54.5009 18.4723 53.6536 18.8238 53.0287 19.4487C52.4038 20.0736 52.0523 20.9208 52.0513 21.8046C52.0513 22.6886 52.4025 23.5365 53.0276 24.1616C53.6527 24.7867 54.5005 25.1379 55.3846 25.1379C56.2687 25.1379 57.1165 24.7867 57.7416 24.1616C58.3667 23.5365 58.7179 22.6886 58.7179 21.8046C58.7169 20.9208 58.3654 20.0736 57.7405 19.4487C57.1156 18.8238 56.2684 18.4722 55.3846 18.4713ZM55.3846 23.4713C55.055 23.4713 54.7327 23.3735 54.4587 23.1904C54.1846 23.0072 53.9709 22.7469 53.8448 22.4424C53.7187 22.1378 53.6857 21.8027 53.75 21.4794C53.8143 21.1561 53.973 20.8592 54.2061 20.6261C54.4392 20.393 54.7362 20.2343 55.0595 20.1699C55.3828 20.1056 55.7179 20.1386 56.0224 20.2648C56.327 20.3909 56.5873 20.6046 56.7704 20.8786C56.9535 21.1527 57.0513 21.475 57.0513 21.8046C57.0507 22.2465 56.875 22.6701 56.5625 22.9825C56.2501 23.295 55.8265 23.4707 55.3846 23.4713Z" fill="#030303" fill-opacity="0.82"/>
<path d="M67.0513 18.4713C66.1675 18.4723 65.3203 18.8238 64.6954 19.4487C64.0705 20.0736 63.719 20.9208 63.718 21.8046C63.718 22.6886 64.0691 23.5365 64.6943 24.1616C65.3194 24.7867 66.1672 25.1379 67.0513 25.1379C67.9353 25.1379 68.7832 24.7867 69.4083 24.1616C70.0334 23.5365 70.3846 22.6886 70.3846 21.8046C70.3836 20.9208 70.0321 20.0736 69.4072 19.4487C68.7823 18.8238 67.935 18.4722 67.0513 18.4713ZM67.0513 23.4713C66.7217 23.4713 66.3994 23.3735 66.1253 23.1904C65.8513 23.0072 65.6376 22.7469 65.5115 22.4424C65.3853 22.1378 65.3523 21.8027 65.4166 21.4794C65.481 21.1561 65.6397 20.8592 65.8728 20.6261C66.1059 20.393 66.4028 20.2343 66.7261 20.1699C67.0494 20.1056 67.3846 20.1386 67.6891 20.2648C67.9936 20.3909 68.2539 20.6046 68.4371 20.8786C68.6202 21.1527 68.718 21.475 68.718 21.8046C68.7174 22.2465 68.5417 22.6701 68.2292 22.9825C67.9168 23.295 67.4932 23.4707 67.0513 23.4713Z" fill="#030303" fill-opacity="0.82"/>
<path d="M111.142 13.4605C112.373 12.4916 113.272 11.1629 113.713 9.65926C114.155 8.15565 114.116 6.5519 113.604 5.07112C113.091 3.59035 112.129 2.30619 110.853 1.39731C109.576 0.488418 108.048 0 106.481 0C104.914 0 103.386 0.488418 102.11 1.39731C100.833 2.30619 99.8718 3.59035 99.3591 5.07112C98.8465 6.5519 98.8081 8.15565 99.2493 9.65926C99.6905 11.1629 100.589 12.4916 101.821 13.4605C99.7107 14.306 97.8694 15.7082 96.4934 17.5178C95.1174 19.3274 94.2583 21.4765 94.0076 23.736C93.9894 23.901 94.004 24.0679 94.0503 24.2272C94.0967 24.3866 94.174 24.5352 94.2778 24.6647C94.4875 24.9262 94.7924 25.0937 95.1256 25.1304C95.4587 25.167 95.7928 25.0698 96.0543 24.8601C96.3158 24.6505 96.4833 24.3455 96.5199 24.0124C96.7958 21.5568 97.9666 19.2889 99.8089 17.642C101.651 15.9952 104.035 15.0848 106.506 15.0848C108.978 15.0848 111.362 15.9952 113.204 17.642C115.046 19.2889 116.217 21.5568 116.493 24.0124C116.527 24.321 116.674 24.6061 116.906 24.8126C117.138 25.019 117.439 25.1322 117.749 25.1304H117.887C118.217 25.0925 118.518 24.926 118.725 24.6671C118.932 24.4083 119.028 24.0781 118.993 23.7486C118.741 21.4827 117.877 19.3281 116.494 17.5157C115.111 15.7033 113.261 14.3015 111.142 13.4605ZM106.481 12.5686C105.488 12.5686 104.516 12.2739 103.69 11.7218C102.863 11.1697 102.219 10.3849 101.839 9.4668C101.459 8.54866 101.359 7.53836 101.553 6.56367C101.747 5.58898 102.226 4.69366 102.928 3.99095C103.631 3.28823 104.526 2.80968 105.501 2.6158C106.476 2.42192 107.486 2.52142 108.404 2.90173C109.322 3.28204 110.107 3.92606 110.659 4.75237C111.211 5.57868 111.506 6.55015 111.506 7.54394C111.506 8.87657 110.977 10.1546 110.034 11.0969C109.092 12.0392 107.814 12.5686 106.481 12.5686Z" fill="#030303" fill-opacity="0.82"/>
</svg>
