<svg width="332" height="24" viewBox="0 0 332 24" fill="none" xmlns="http://www.w3.org/2000/svg">
<g opacity="0.3">
<path d="M10 2C8.02219 2 6.08879 2.58649 4.4443 3.6853C2.79981 4.78412 1.51809 6.3459 0.761209 8.17316C0.00433267 10.0004 -0.1937 12.0111 0.192152 13.9509C0.578004 15.8907 1.53041 17.6725 2.92894 19.0711C4.32746 20.4696 6.10929 21.422 8.0491 21.8078C9.98891 22.1937 11.9996 21.9957 13.8268 21.2388C15.6541 20.4819 17.2159 19.2002 18.3147 17.5557C19.4135 15.9112 20 13.9778 20 12C19.997 9.34875 18.9425 6.80695 17.0678 4.93224C15.193 3.05752 12.6512 2.00299 10 2ZM10 20.8235C8.25487 20.8235 6.54893 20.306 5.09791 19.3365C3.64689 18.367 2.51596 16.9889 1.84813 15.3766C1.18029 13.7643 1.00556 11.9902 1.34602 10.2786C1.68647 8.56702 2.52683 6.99481 3.76083 5.76082C4.99482 4.52683 6.56702 3.68647 8.27862 3.34601C9.99021 3.00555 11.7643 3.18029 13.3766 3.84812C14.9889 4.51595 16.367 5.64689 17.3365 7.09791C18.306 8.54893 18.8235 10.2549 18.8235 12C18.8209 14.3393 17.8904 16.5821 16.2362 18.2362C14.5821 19.8904 12.3393 20.8209 10 20.8235ZM6.66696 11.9995C6.66699 12.6991 6.88714 13.381 7.29621 13.9485C7.70528 14.5161 8.28255 14.9405 8.94624 15.1618C9.60994 15.383 10.3264 15.3898 10.9942 15.1813C11.662 14.9727 12.2473 14.5593 12.6671 13.9997C12.7608 13.875 12.9002 13.7926 13.0547 13.7707C13.2092 13.7487 13.366 13.7891 13.4907 13.8828C13.6155 13.9765 13.6978 14.116 13.7198 14.2704C13.7417 14.4249 13.7014 14.5817 13.6076 14.7065C13.0396 15.4634 12.2477 16.0225 11.3443 16.3045C10.4409 16.5864 9.47166 16.5771 8.57387 16.2776C7.67607 15.9782 6.89523 15.4039 6.34191 14.6361C5.7886 13.8683 5.49086 12.9459 5.49086 11.9995C5.49086 11.0531 5.7886 10.1307 6.34191 9.36286C6.89523 8.59506 7.67607 8.02078 8.57387 7.72136C9.47166 7.42195 10.4409 7.41257 11.3443 7.69455C12.2477 7.97653 13.0396 8.53558 13.6076 9.29253C13.7014 9.41726 13.7417 9.57411 13.7198 9.72857C13.6978 9.88304 13.6155 10.0225 13.4907 10.1162C13.366 10.2099 13.2092 10.2503 13.0547 10.2283C12.9002 10.2064 12.7608 10.124 12.6671 9.9993C12.2472 9.43967 11.662 9.02631 10.9942 8.81776C10.3264 8.60921 9.60993 8.61605 8.94624 8.8373C8.28255 9.05855 7.70529 9.483 7.29622 10.0505C6.88715 10.6181 6.667 11.2999 6.66696 11.9995Z" fill="white"/>
</g>
<path opacity="0.3" d="M25.624 18V17.184L30.28 12.624C30.7067 12.208 31.0267 11.8453 31.24 11.536C31.4533 11.216 31.5973 10.9173 31.672 10.64C31.7467 10.3627 31.784 10.1013 31.784 9.856C31.784 9.20533 31.56 8.69333 31.112 8.32C30.6747 7.94667 30.024 7.76 29.16 7.76C28.4987 7.76 27.912 7.86133 27.4 8.064C26.8987 8.26667 26.4667 8.58133 26.104 9.008L25.288 8.304C25.7253 7.792 26.2853 7.39733 26.968 7.12C27.6507 6.84267 28.4133 6.704 29.256 6.704C30.0133 6.704 30.6693 6.82667 31.224 7.072C31.7787 7.30667 32.2053 7.65333 32.504 8.112C32.8133 8.57067 32.968 9.10933 32.968 9.728C32.968 10.0907 32.9147 10.448 32.808 10.8C32.712 11.152 32.5307 11.5253 32.264 11.92C32.008 12.304 31.6293 12.7413 31.128 13.232L26.856 17.424L26.536 16.976H33.48V18H25.624ZM39.3585 18.096C38.4945 18.096 37.7265 17.872 37.0545 17.424C36.3825 16.9653 35.8545 16.3147 35.4705 15.472C35.0865 14.6187 34.8945 13.5947 34.8945 12.4C34.8945 11.2053 35.0865 10.1867 35.4705 9.344C35.8545 8.49067 36.3825 7.84 37.0545 7.392C37.7265 6.93333 38.4945 6.704 39.3585 6.704C40.2225 6.704 40.9905 6.93333 41.6625 7.392C42.3345 7.84 42.8625 8.49067 43.2465 9.344C43.6412 10.1867 43.8385 11.2053 43.8385 12.4C43.8385 13.5947 43.6412 14.6187 43.2465 15.472C42.8625 16.3147 42.3345 16.9653 41.6625 17.424C40.9905 17.872 40.2225 18.096 39.3585 18.096ZM39.3585 17.04C40.0198 17.04 40.5958 16.864 41.0865 16.512C41.5772 16.1493 41.9612 15.6267 42.2385 14.944C42.5158 14.2507 42.6545 13.4027 42.6545 12.4C42.6545 11.3973 42.5158 10.5547 42.2385 9.872C41.9612 9.17867 41.5772 8.656 41.0865 8.304C40.5958 7.94133 40.0198 7.76 39.3585 7.76C38.7185 7.76 38.1478 7.94133 37.6465 8.304C37.1452 8.656 36.7558 9.17867 36.4785 9.872C36.2012 10.5547 36.0625 11.3973 36.0625 12.4C36.0625 13.4027 36.2012 14.2507 36.4785 14.944C36.7558 15.6267 37.1452 16.1493 37.6465 16.512C38.1478 16.864 38.7185 17.04 39.3585 17.04ZM45.2803 18V17.184L49.9363 12.624C50.3629 12.208 50.6829 11.8453 50.8963 11.536C51.1096 11.216 51.2536 10.9173 51.3283 10.64C51.4029 10.3627 51.4403 10.1013 51.4403 9.856C51.4403 9.20533 51.2163 8.69333 50.7683 8.32C50.3309 7.94667 49.6803 7.76 48.8163 7.76C48.1549 7.76 47.5683 7.86133 47.0563 8.064C46.5549 8.26667 46.1229 8.58133 45.7603 9.008L44.9443 8.304C45.3816 7.792 45.9416 7.39733 46.6243 7.12C47.3069 6.84267 48.0696 6.704 48.9123 6.704C49.6696 6.704 50.3256 6.82667 50.8803 7.072C51.4349 7.30667 51.8616 7.65333 52.1603 8.112C52.4696 8.57067 52.6243 9.10933 52.6243 9.728C52.6243 10.0907 52.5709 10.448 52.4643 10.8C52.3683 11.152 52.1869 11.5253 51.9203 11.92C51.6643 12.304 51.2856 12.7413 50.7843 13.232L46.5123 17.424L46.1923 16.976H53.1363V18H45.2803ZM57.926 18.096C57.1153 18.096 56.3473 17.968 55.622 17.712C54.9073 17.4453 54.3313 17.0933 53.894 16.656L54.454 15.744C54.8167 16.1173 55.302 16.4267 55.91 16.672C56.5287 16.9173 57.2007 17.04 57.926 17.04C58.854 17.04 59.5633 16.8373 60.054 16.432C60.5553 16.0267 60.806 15.4827 60.806 14.8C60.806 14.1173 60.5607 13.5733 60.07 13.168C59.59 12.7627 58.8273 12.56 57.782 12.56H56.982V11.712L60.438 7.376L60.598 7.824H54.358V6.8H61.558V7.616L58.102 11.952L57.542 11.584H57.974C59.318 11.584 60.3207 11.8827 60.982 12.48C61.654 13.0773 61.99 13.8453 61.99 14.784C61.99 15.4133 61.8407 15.9787 61.542 16.48C61.2433 16.9813 60.79 17.376 60.182 17.664C59.5847 17.952 58.8327 18.096 57.926 18.096ZM73.6568 18.096C72.8141 18.096 72.0354 17.9573 71.3208 17.68C70.6061 17.392 69.9874 16.992 69.4648 16.48C68.9421 15.968 68.5314 15.3653 68.2328 14.672C67.9448 13.9787 67.8008 13.2213 67.8008 12.4C67.8008 11.5787 67.9448 10.8213 68.2328 10.128C68.5314 9.43467 68.9421 8.832 69.4648 8.32C69.9981 7.808 70.6221 7.41333 71.3368 7.136C72.0514 6.848 72.8301 6.704 73.6728 6.704C74.4834 6.704 75.2461 6.84267 75.9608 7.12C76.6754 7.38667 77.2781 7.792 77.7688 8.336L77.0168 9.088C76.5581 8.61867 76.0514 8.28267 75.4968 8.08C74.9421 7.86667 74.3448 7.76 73.7048 7.76C73.0328 7.76 72.4088 7.87733 71.8328 8.112C71.2568 8.336 70.7554 8.66133 70.3288 9.088C69.9021 9.504 69.5661 9.99467 69.3207 10.56C69.0861 11.1147 68.9688 11.728 68.9688 12.4C68.9688 13.072 69.0861 13.6907 69.3207 14.256C69.5661 14.8107 69.9021 15.3013 70.3288 15.728C70.7554 16.144 71.2568 16.4693 71.8328 16.704C72.4088 16.928 73.0328 17.04 73.7048 17.04C74.3448 17.04 74.9421 16.9333 75.4968 16.72C76.0514 16.5067 76.5581 16.1653 77.0168 15.696L77.7688 16.448C77.2781 16.992 76.6754 17.4027 75.9608 17.68C75.2461 17.9573 74.4781 18.096 73.6568 18.096ZM83.1018 18.08C82.2911 18.08 81.5604 17.8987 80.9098 17.536C80.2698 17.1627 79.7631 16.656 79.3898 16.016C79.0164 15.3653 78.8298 14.624 78.8298 13.792C78.8298 12.9493 79.0164 12.208 79.3898 11.568C79.7631 10.928 80.2698 10.4267 80.9098 10.064C81.5498 9.70133 82.2804 9.52 83.1018 9.52C83.9338 9.52 84.6698 9.70133 85.3098 10.064C85.9604 10.4267 86.4671 10.928 86.8298 11.568C87.2031 12.208 87.3898 12.9493 87.3898 13.792C87.3898 14.624 87.2031 15.3653 86.8298 16.016C86.4671 16.656 85.9604 17.1627 85.3098 17.536C84.6591 17.8987 83.9231 18.08 83.1018 18.08ZM83.1018 17.072C83.7098 17.072 84.2484 16.9387 84.7178 16.672C85.1871 16.3947 85.5551 16.0107 85.8218 15.52C86.0991 15.0187 86.2378 14.4427 86.2378 13.792C86.2378 13.1307 86.0991 12.5547 85.8218 12.064C85.5551 11.5733 85.1871 11.1947 84.7178 10.928C84.2484 10.6507 83.7151 10.512 83.1178 10.512C82.5204 10.512 81.9871 10.6507 81.5178 10.928C81.0484 11.1947 80.6751 11.5733 80.3978 12.064C80.1204 12.5547 79.9818 13.1307 79.9818 13.792C79.9818 14.4427 80.1204 15.0187 80.3978 15.52C80.6751 16.0107 81.0484 16.3947 81.5178 16.672C81.9871 16.9387 82.5151 17.072 83.1018 17.072ZM100.205 9.52C100.888 9.52 101.48 9.65333 101.981 9.92C102.493 10.176 102.888 10.5707 103.165 11.104C103.453 11.6373 103.597 12.3093 103.597 13.12V18H102.461V13.232C102.461 12.3467 102.248 11.68 101.821 11.232C101.405 10.7733 100.813 10.544 100.045 10.544C99.469 10.544 98.9677 10.6667 98.541 10.912C98.125 11.1467 97.7997 11.4933 97.565 11.952C97.341 12.4 97.229 12.944 97.229 13.584V18H96.093V13.232C96.093 12.3467 95.8797 11.68 95.453 11.232C95.0263 10.7733 94.429 10.544 93.661 10.544C93.0957 10.544 92.5997 10.6667 92.173 10.912C91.7463 11.1467 91.4157 11.4933 91.181 11.952C90.957 12.4 90.845 12.944 90.845 13.584V18H89.709V9.6H90.797V11.872L90.621 11.472C90.877 10.864 91.2877 10.3893 91.853 10.048C92.429 9.696 93.1063 9.52 93.885 9.52C94.7063 9.52 95.405 9.728 95.981 10.144C96.557 10.5493 96.9303 11.1627 97.101 11.984L96.653 11.808C96.8983 11.1253 97.3303 10.576 97.949 10.16C98.5783 9.73333 99.3303 9.52 100.205 9.52ZM106.87 18V8.544C106.87 7.79733 107.088 7.19467 107.526 6.736C107.963 6.27733 108.592 6.048 109.414 6.048C109.734 6.048 110.043 6.09067 110.342 6.176C110.64 6.26133 110.891 6.39467 111.094 6.576L110.71 7.424C110.55 7.28533 110.363 7.184 110.15 7.12C109.936 7.04533 109.707 7.008 109.462 7.008C108.982 7.008 108.614 7.14133 108.358 7.408C108.102 7.67467 107.974 8.06933 107.974 8.592V9.872L108.006 10.4V18H106.87ZM105.366 10.544V9.6H110.566V10.544H105.366ZM115.383 18.08C114.572 18.08 113.842 17.8987 113.191 17.536C112.551 17.1627 112.044 16.656 111.671 16.016C111.298 15.3653 111.111 14.624 111.111 13.792C111.111 12.9493 111.298 12.208 111.671 11.568C112.044 10.928 112.551 10.4267 113.191 10.064C113.831 9.70133 114.562 9.52 115.383 9.52C116.215 9.52 116.951 9.70133 117.591 10.064C118.242 10.4267 118.748 10.928 119.111 11.568C119.484 12.208 119.671 12.9493 119.671 13.792C119.671 14.624 119.484 15.3653 119.111 16.016C118.748 16.656 118.242 17.1627 117.591 17.536C116.94 17.8987 116.204 18.08 115.383 18.08ZM115.383 17.072C115.991 17.072 116.53 16.9387 116.999 16.672C117.468 16.3947 117.836 16.0107 118.103 15.52C118.38 15.0187 118.519 14.4427 118.519 13.792C118.519 13.1307 118.38 12.5547 118.103 12.064C117.836 11.5733 117.468 11.1947 116.999 10.928C116.53 10.6507 115.996 10.512 115.399 10.512C114.802 10.512 114.268 10.6507 113.799 10.928C113.33 11.1947 112.956 11.5733 112.679 12.064C112.402 12.5547 112.263 13.1307 112.263 13.792C112.263 14.4427 112.402 15.0187 112.679 15.52C112.956 16.0107 113.33 16.3947 113.799 16.672C114.268 16.9387 114.796 17.072 115.383 17.072ZM121.99 18V9.6H123.078V11.888L122.966 11.488C123.201 10.848 123.596 10.3627 124.15 10.032C124.705 9.69067 125.393 9.52 126.214 9.52V10.624C126.172 10.624 126.129 10.624 126.086 10.624C126.044 10.6133 126.001 10.608 125.958 10.608C125.073 10.608 124.38 10.88 123.878 11.424C123.377 11.9573 123.126 12.72 123.126 13.712V18H121.99ZM131.303 18.08C130.513 18.08 129.905 17.8667 129.479 17.44C129.052 17.0133 128.839 16.4107 128.839 15.632V7.744H129.975V15.568C129.975 16.0587 130.097 16.4373 130.343 16.704C130.599 16.9707 130.961 17.104 131.431 17.104C131.932 17.104 132.348 16.96 132.679 16.672L133.079 17.488C132.855 17.6907 132.583 17.84 132.263 17.936C131.953 18.032 131.633 18.08 131.303 18.08ZM127.335 10.544V9.6H132.535V10.544H127.335ZM144.438 18.096C143.595 18.096 142.817 17.9573 142.102 17.68C141.387 17.392 140.769 16.992 140.246 16.48C139.723 15.968 139.313 15.3653 139.014 14.672C138.726 13.9787 138.582 13.2213 138.582 12.4C138.582 11.5787 138.726 10.8213 139.014 10.128C139.313 9.43467 139.723 8.832 140.246 8.32C140.779 7.808 141.403 7.41333 142.118 7.136C142.833 6.848 143.611 6.704 144.454 6.704C145.265 6.704 146.027 6.84267 146.742 7.12C147.457 7.38667 148.059 7.792 148.55 8.336L147.798 9.088C147.339 8.61867 146.833 8.28267 146.278 8.08C145.723 7.86667 145.126 7.76 144.486 7.76C143.814 7.76 143.19 7.87733 142.614 8.112C142.038 8.336 141.537 8.66133 141.11 9.088C140.683 9.504 140.347 9.99467 140.102 10.56C139.867 11.1147 139.75 11.728 139.75 12.4C139.75 13.072 139.867 13.6907 140.102 14.256C140.347 14.8107 140.683 15.3013 141.11 15.728C141.537 16.144 142.038 16.4693 142.614 16.704C143.19 16.928 143.814 17.04 144.486 17.04C145.126 17.04 145.723 16.9333 146.278 16.72C146.833 16.5067 147.339 16.1653 147.798 15.696L148.55 16.448C148.059 16.992 147.457 17.4027 146.742 17.68C146.027 17.9573 145.259 18.096 144.438 18.096ZM150.834 18V9.6H151.922V11.888L151.81 11.488C152.045 10.848 152.439 10.3627 152.994 10.032C153.549 9.69067 154.237 9.52 155.058 9.52V10.624C155.015 10.624 154.973 10.624 154.93 10.624C154.887 10.6133 154.845 10.608 154.802 10.608C153.917 10.608 153.223 10.88 152.722 11.424C152.221 11.9573 151.97 12.72 151.97 13.712V18H150.834ZM161.77 18V16.144L161.722 15.84V12.736C161.722 12.0213 161.519 11.472 161.114 11.088C160.719 10.704 160.127 10.512 159.338 10.512C158.794 10.512 158.277 10.6027 157.786 10.784C157.295 10.9653 156.879 11.2053 156.538 11.504L156.026 10.656C156.453 10.2933 156.965 10.016 157.562 9.824C158.159 9.62133 158.789 9.52 159.45 9.52C160.538 9.52 161.375 9.792 161.962 10.336C162.559 10.8693 162.858 11.6853 162.858 12.784V18H161.77ZM158.874 18.08C158.245 18.08 157.695 17.9787 157.226 17.776C156.767 17.5627 156.415 17.2747 156.17 16.912C155.925 16.5387 155.802 16.112 155.802 15.632C155.802 15.1947 155.903 14.8 156.106 14.448C156.319 14.0853 156.661 13.7973 157.13 13.584C157.61 13.36 158.25 13.248 159.05 13.248H161.946V14.096H159.082C158.271 14.096 157.706 14.24 157.386 14.528C157.077 14.816 156.922 15.1733 156.922 15.6C156.922 16.08 157.109 16.464 157.482 16.752C157.855 17.04 158.378 17.184 159.05 17.184C159.69 17.184 160.239 17.04 160.698 16.752C161.167 16.4533 161.509 16.0267 161.722 15.472L161.978 16.256C161.765 16.8107 161.391 17.2533 160.858 17.584C160.335 17.9147 159.674 18.08 158.874 18.08ZM166.135 18V8.544C166.135 7.79733 166.354 7.19467 166.791 6.736C167.229 6.27733 167.858 6.048 168.679 6.048C168.999 6.048 169.309 6.09067 169.607 6.176C169.906 6.26133 170.157 6.39467 170.359 6.576L169.975 7.424C169.815 7.28533 169.629 7.184 169.415 7.12C169.202 7.04533 168.973 7.008 168.727 7.008C168.247 7.008 167.879 7.14133 167.623 7.408C167.367 7.67467 167.239 8.06933 167.239 8.592V9.872L167.271 10.4V18H166.135ZM164.631 10.544V9.6H169.831V10.544H164.631ZM174.021 18.08C173.232 18.08 172.624 17.8667 172.197 17.44C171.771 17.0133 171.557 16.4107 171.557 15.632V7.744H172.693V15.568C172.693 16.0587 172.816 16.4373 173.061 16.704C173.317 16.9707 173.68 17.104 174.149 17.104C174.651 17.104 175.067 16.96 175.397 16.672L175.797 17.488C175.573 17.6907 175.301 17.84 174.981 17.936C174.672 18.032 174.352 18.08 174.021 18.08ZM170.053 10.544V9.6H175.253V10.544H170.053ZM178.134 18.08C177.899 18.08 177.696 17.9947 177.526 17.824C177.366 17.6533 177.286 17.4453 177.286 17.2C177.286 16.944 177.366 16.736 177.526 16.576C177.696 16.416 177.899 16.336 178.134 16.336C178.368 16.336 178.566 16.416 178.726 16.576C178.896 16.736 178.982 16.944 178.982 17.2C178.982 17.4453 178.896 17.6533 178.726 17.824C178.566 17.9947 178.368 18.08 178.134 18.08ZM184.048 18L189.168 6.8H190.336L195.456 18H194.208L189.504 7.488H189.984L185.28 18H184.048ZM186.064 15.008L186.416 14.048H192.928L193.28 15.008H186.064ZM197.068 18V6.128H198.204V18H197.068ZM201.365 18V6.128H202.501V18H201.365ZM209.85 18V9.6H210.938V11.888L210.826 11.488C211.06 10.848 211.455 10.3627 212.01 10.032C212.564 9.69067 213.252 9.52 214.074 9.52V10.624C214.031 10.624 213.988 10.624 213.946 10.624C213.903 10.6133 213.86 10.608 213.818 10.608C212.932 10.608 212.239 10.88 211.738 11.424C211.236 11.9573 210.986 12.72 210.986 13.712V18H209.85ZM216.147 18V9.6H217.283V18H216.147ZM216.723 7.744C216.488 7.744 216.291 7.664 216.131 7.504C215.971 7.344 215.891 7.152 215.891 6.928C215.891 6.704 215.971 6.51733 216.131 6.368C216.291 6.208 216.488 6.128 216.723 6.128C216.957 6.128 217.155 6.20267 217.315 6.352C217.475 6.50133 217.555 6.688 217.555 6.912C217.555 7.14667 217.475 7.344 217.315 7.504C217.165 7.664 216.968 7.744 216.723 7.744ZM224.027 21.184C223.259 21.184 222.523 21.072 221.819 20.848C221.115 20.624 220.545 20.304 220.107 19.888L220.683 19.024C221.078 19.376 221.563 19.6533 222.139 19.856C222.726 20.0693 223.345 20.176 223.995 20.176C225.062 20.176 225.846 19.9253 226.347 19.424C226.849 18.9333 227.099 18.1653 227.099 17.12V15.024L227.259 13.584L227.147 12.144V9.6H228.235V16.976C228.235 18.4267 227.878 19.488 227.163 20.16C226.459 20.8427 225.414 21.184 224.027 21.184ZM223.819 17.68C223.019 17.68 222.299 17.5093 221.659 17.168C221.019 16.816 220.513 16.3307 220.139 15.712C219.777 15.0933 219.595 14.384 219.595 13.584C219.595 12.784 219.777 12.08 220.139 11.472C220.513 10.8533 221.019 10.3733 221.659 10.032C222.299 9.69067 223.019 9.52 223.819 9.52C224.566 9.52 225.238 9.67467 225.835 9.984C226.433 10.2933 226.907 10.752 227.259 11.36C227.611 11.968 227.787 12.7093 227.787 13.584C227.787 14.4587 227.611 15.2 227.259 15.808C226.907 16.416 226.433 16.88 225.835 17.2C225.238 17.52 224.566 17.68 223.819 17.68ZM223.931 16.672C224.55 16.672 225.099 16.544 225.579 16.288C226.059 16.0213 226.438 15.6587 226.715 15.2C226.993 14.7307 227.131 14.192 227.131 13.584C227.131 12.976 226.993 12.4427 226.715 11.984C226.438 11.5253 226.059 11.168 225.579 10.912C225.099 10.6453 224.55 10.512 223.931 10.512C223.323 10.512 222.774 10.6453 222.283 10.912C221.803 11.168 221.425 11.5253 221.147 11.984C220.881 12.4427 220.747 12.976 220.747 13.584C220.747 14.192 220.881 14.7307 221.147 15.2C221.425 15.6587 221.803 16.0213 222.283 16.288C222.774 16.544 223.323 16.672 223.931 16.672ZM235.685 9.52C236.367 9.52 236.965 9.65333 237.477 9.92C237.999 10.176 238.405 10.5707 238.693 11.104C238.991 11.6373 239.141 12.3093 239.141 13.12V18H238.005V13.232C238.005 12.3467 237.781 11.68 237.333 11.232C236.895 10.7733 236.277 10.544 235.477 10.544C234.879 10.544 234.357 10.6667 233.909 10.912C233.471 11.1467 233.13 11.4933 232.885 11.952C232.65 12.4 232.533 12.944 232.533 13.584V18H231.397V6.128H232.533V11.904L232.309 11.472C232.575 10.864 233.002 10.3893 233.589 10.048C234.175 9.696 234.874 9.52 235.685 9.52ZM244.865 18.08C244.076 18.08 243.468 17.8667 243.041 17.44C242.614 17.0133 242.401 16.4107 242.401 15.632V7.744H243.537V15.568C243.537 16.0587 243.66 16.4373 243.905 16.704C244.161 16.9707 244.524 17.104 244.993 17.104C245.494 17.104 245.91 16.96 246.241 16.672L246.641 17.488C246.417 17.6907 246.145 17.84 245.825 17.936C245.516 18.032 245.196 18.08 244.865 18.08ZM240.897 10.544V9.6H246.097V10.544H240.897ZM250.965 18.08C250.272 18.08 249.616 17.984 248.997 17.792C248.378 17.5893 247.893 17.3387 247.541 17.04L248.053 16.144C248.394 16.4 248.832 16.624 249.365 16.816C249.898 16.9973 250.458 17.088 251.045 17.088C251.845 17.088 252.421 16.9653 252.773 16.72C253.125 16.464 253.301 16.128 253.301 15.712C253.301 15.4027 253.2 15.1627 252.997 14.992C252.805 14.8107 252.549 14.6773 252.229 14.592C251.909 14.496 251.552 14.416 251.157 14.352C250.762 14.288 250.368 14.2133 249.973 14.128C249.589 14.0427 249.237 13.92 248.917 13.76C248.597 13.5893 248.336 13.36 248.133 13.072C247.941 12.784 247.845 12.4 247.845 11.92C247.845 11.4613 247.973 11.0507 248.229 10.688C248.485 10.3253 248.858 10.0427 249.349 9.84C249.85 9.62667 250.458 9.52 251.173 9.52C251.717 9.52 252.261 9.59467 252.805 9.744C253.349 9.88267 253.797 10.0693 254.149 10.304L253.653 11.216C253.28 10.96 252.88 10.7787 252.453 10.672C252.026 10.5547 251.6 10.496 251.173 10.496C250.416 10.496 249.856 10.6293 249.493 10.896C249.141 11.152 248.965 11.4827 248.965 11.888C248.965 12.208 249.061 12.4587 249.253 12.64C249.456 12.8213 249.717 12.9653 250.037 13.072C250.368 13.168 250.725 13.248 251.109 13.312C251.504 13.376 251.893 13.456 252.277 13.552C252.672 13.6373 253.029 13.76 253.349 13.92C253.68 14.0693 253.941 14.288 254.133 14.576C254.336 14.8533 254.437 15.2213 254.437 15.68C254.437 16.1707 254.298 16.5973 254.021 16.96C253.754 17.312 253.36 17.5893 252.837 17.792C252.325 17.984 251.701 18.08 250.965 18.08ZM260.709 18V9.6H261.797V11.888L261.685 11.488C261.92 10.848 262.314 10.3627 262.869 10.032C263.424 9.69067 264.112 9.52 264.933 9.52V10.624C264.89 10.624 264.848 10.624 264.805 10.624C264.762 10.6133 264.72 10.608 264.677 10.608C263.792 10.608 263.098 10.88 262.597 11.424C262.096 11.9573 261.845 12.72 261.845 13.712V18H260.709ZM270.496 18.08C269.621 18.08 268.853 17.8987 268.192 17.536C267.53 17.1627 267.013 16.656 266.64 16.016C266.266 15.3653 266.08 14.624 266.08 13.792C266.08 12.96 266.256 12.224 266.608 11.584C266.97 10.944 267.461 10.4427 268.08 10.08C268.709 9.70667 269.413 9.52 270.192 9.52C270.981 9.52 271.68 9.70133 272.288 10.064C272.906 10.416 273.392 10.9173 273.744 11.568C274.096 12.208 274.272 12.9493 274.272 13.792C274.272 13.8453 274.266 13.904 274.256 13.968C274.256 14.0213 274.256 14.08 274.256 14.144H266.944V13.296H273.648L273.2 13.632C273.2 13.024 273.066 12.4853 272.8 12.016C272.544 11.536 272.192 11.1627 271.744 10.896C271.296 10.6293 270.778 10.496 270.192 10.496C269.616 10.496 269.098 10.6293 268.64 10.896C268.181 11.1627 267.824 11.536 267.568 12.016C267.312 12.496 267.184 13.0453 267.184 13.664V13.84C267.184 14.48 267.322 15.0453 267.6 15.536C267.888 16.016 268.282 16.3947 268.784 16.672C269.296 16.9387 269.877 17.072 270.528 17.072C271.04 17.072 271.514 16.9813 271.952 16.8C272.4 16.6187 272.784 16.3413 273.104 15.968L273.744 16.704C273.37 17.152 272.901 17.4933 272.336 17.728C271.781 17.9627 271.168 18.08 270.496 18.08ZM278.84 18.08C278.147 18.08 277.491 17.984 276.872 17.792C276.253 17.5893 275.768 17.3387 275.416 17.04L275.928 16.144C276.269 16.4 276.707 16.624 277.24 16.816C277.773 16.9973 278.333 17.088 278.92 17.088C279.72 17.088 280.296 16.9653 280.648 16.72C281 16.464 281.176 16.128 281.176 15.712C281.176 15.4027 281.075 15.1627 280.872 14.992C280.68 14.8107 280.424 14.6773 280.104 14.592C279.784 14.496 279.427 14.416 279.032 14.352C278.637 14.288 278.243 14.2133 277.848 14.128C277.464 14.0427 277.112 13.92 276.792 13.76C276.472 13.5893 276.211 13.36 276.008 13.072C275.816 12.784 275.72 12.4 275.72 11.92C275.72 11.4613 275.848 11.0507 276.104 10.688C276.36 10.3253 276.733 10.0427 277.224 9.84C277.725 9.62667 278.333 9.52 279.048 9.52C279.592 9.52 280.136 9.59467 280.68 9.744C281.224 9.88267 281.672 10.0693 282.024 10.304L281.528 11.216C281.155 10.96 280.755 10.7787 280.328 10.672C279.901 10.5547 279.475 10.496 279.048 10.496C278.291 10.496 277.731 10.6293 277.368 10.896C277.016 11.152 276.84 11.4827 276.84 11.888C276.84 12.208 276.936 12.4587 277.128 12.64C277.331 12.8213 277.592 12.9653 277.912 13.072C278.243 13.168 278.6 13.248 278.984 13.312C279.379 13.376 279.768 13.456 280.152 13.552C280.547 13.6373 280.904 13.76 281.224 13.92C281.555 14.0693 281.816 14.288 282.008 14.576C282.211 14.8533 282.312 15.2213 282.312 15.68C282.312 16.1707 282.173 16.5973 281.896 16.96C281.629 17.312 281.235 17.5893 280.712 17.792C280.2 17.984 279.576 18.08 278.84 18.08ZM287.965 18.08C287.09 18.08 286.322 17.8987 285.661 17.536C284.999 17.1627 284.482 16.656 284.109 16.016C283.735 15.3653 283.549 14.624 283.549 13.792C283.549 12.96 283.725 12.224 284.077 11.584C284.439 10.944 284.93 10.4427 285.549 10.08C286.178 9.70667 286.882 9.52 287.661 9.52C288.45 9.52 289.149 9.70133 289.757 10.064C290.375 10.416 290.861 10.9173 291.213 11.568C291.565 12.208 291.741 12.9493 291.741 13.792C291.741 13.8453 291.735 13.904 291.725 13.968C291.725 14.0213 291.725 14.08 291.725 14.144H284.413V13.296H291.117L290.669 13.632C290.669 13.024 290.535 12.4853 290.269 12.016C290.013 11.536 289.661 11.1627 289.213 10.896C288.765 10.6293 288.247 10.496 287.661 10.496C287.085 10.496 286.567 10.6293 286.109 10.896C285.65 11.1627 285.293 11.536 285.037 12.016C284.781 12.496 284.653 13.0453 284.653 13.664V13.84C284.653 14.48 284.791 15.0453 285.069 15.536C285.357 16.016 285.751 16.3947 286.253 16.672C286.765 16.9387 287.346 17.072 287.997 17.072C288.509 17.072 288.983 16.9813 289.421 16.8C289.869 16.6187 290.253 16.3413 290.573 15.968L291.213 16.704C290.839 17.152 290.37 17.4933 289.805 17.728C289.25 17.9627 288.637 18.08 287.965 18.08ZM294.053 18V9.6H295.141V11.888L295.029 11.488C295.263 10.848 295.658 10.3627 296.213 10.032C296.767 9.69067 297.455 9.52 298.277 9.52V10.624C298.234 10.624 298.191 10.624 298.149 10.624C298.106 10.6133 298.063 10.608 298.021 10.608C297.135 10.608 296.442 10.88 295.941 11.424C295.439 11.9573 295.189 12.72 295.189 13.712V18H294.053ZM302.869 18L299.141 9.6H300.325L303.749 17.392H303.189L306.661 9.6H307.781L304.037 18H302.869ZM312.715 18.08C311.84 18.08 311.072 17.8987 310.411 17.536C309.749 17.1627 309.232 16.656 308.859 16.016C308.485 15.3653 308.299 14.624 308.299 13.792C308.299 12.96 308.475 12.224 308.827 11.584C309.189 10.944 309.68 10.4427 310.299 10.08C310.928 9.70667 311.632 9.52 312.411 9.52C313.2 9.52 313.899 9.70133 314.507 10.064C315.125 10.416 315.611 10.9173 315.963 11.568C316.315 12.208 316.491 12.9493 316.491 13.792C316.491 13.8453 316.485 13.904 316.475 13.968C316.475 14.0213 316.475 14.08 316.475 14.144H309.163V13.296H315.867L315.419 13.632C315.419 13.024 315.285 12.4853 315.019 12.016C314.763 11.536 314.411 11.1627 313.963 10.896C313.515 10.6293 312.997 10.496 312.411 10.496C311.835 10.496 311.317 10.6293 310.859 10.896C310.4 11.1627 310.043 11.536 309.787 12.016C309.531 12.496 309.403 13.0453 309.403 13.664V13.84C309.403 14.48 309.541 15.0453 309.819 15.536C310.107 16.016 310.501 16.3947 311.003 16.672C311.515 16.9387 312.096 17.072 312.747 17.072C313.259 17.072 313.733 16.9813 314.171 16.8C314.619 16.6187 315.003 16.3413 315.323 15.968L315.963 16.704C315.589 17.152 315.12 17.4933 314.555 17.728C314 17.9627 313.387 18.08 312.715 18.08ZM322.147 18.08C321.347 18.08 320.627 17.8987 319.987 17.536C319.357 17.1733 318.861 16.672 318.499 16.032C318.136 15.3813 317.955 14.6347 317.955 13.792C317.955 12.9387 318.136 12.192 318.499 11.552C318.861 10.912 319.357 10.416 319.987 10.064C320.627 9.70133 321.347 9.52 322.147 9.52C322.883 9.52 323.539 9.68533 324.115 10.016C324.701 10.3467 325.165 10.832 325.507 11.472C325.859 12.1013 326.035 12.8747 326.035 13.792C326.035 14.6987 325.864 15.472 325.523 16.112C325.181 16.752 324.717 17.2427 324.131 17.584C323.555 17.9147 322.893 18.08 322.147 18.08ZM322.227 17.072C322.824 17.072 323.357 16.9387 323.827 16.672C324.307 16.3947 324.68 16.0107 324.947 15.52C325.224 15.0187 325.363 14.4427 325.363 13.792C325.363 13.1307 325.224 12.5547 324.947 12.064C324.68 11.5733 324.307 11.1947 323.827 10.928C323.357 10.6507 322.824 10.512 322.227 10.512C321.64 10.512 321.112 10.6507 320.643 10.928C320.173 11.1947 319.8 11.5733 319.523 12.064C319.245 12.5547 319.107 13.1307 319.107 13.792C319.107 14.4427 319.245 15.0187 319.523 15.52C319.8 16.0107 320.173 16.3947 320.643 16.672C321.112 16.9387 321.64 17.072 322.227 17.072ZM325.395 18V15.472L325.507 13.776L325.347 12.08V6.128H326.483V18H325.395ZM329.759 18.08C329.524 18.08 329.321 17.9947 329.151 17.824C328.991 17.6533 328.911 17.4453 328.911 17.2C328.911 16.944 328.991 16.736 329.151 16.576C329.321 16.416 329.524 16.336 329.759 16.336C329.993 16.336 330.191 16.416 330.351 16.576C330.521 16.736 330.607 16.944 330.607 17.2C330.607 17.4453 330.521 17.6533 330.351 17.824C330.191 17.9947 329.993 18.08 329.759 18.08Z" fill="white"/>
</svg>
