<svg width="32" height="32" viewBox="0 0 32 32" fill="none" xmlns="http://www.w3.org/2000/svg">
<path d="M24.8879 23.6308L31.7397 30.4826C32.0868 30.8297 32.0868 31.3925 31.7397 31.7397C31.3925 32.0868 30.8297 32.0868 30.4826 31.7397L23.6308 24.8879C21.1235 27.1013 17.8297 28.4444 14.2222 28.4444C6.36751 28.4444 0 22.0769 0 14.2222C0 6.36751 6.36751 0 14.2222 0C22.0769 0 28.4444 6.36751 28.4444 14.2222C28.4444 17.8297 27.1013 21.1235 24.8879 23.6308ZM14.2222 26.6667C21.0951 26.6667 26.6667 21.0951 26.6667 14.2222C26.6667 7.34935 21.0951 1.77778 14.2222 1.77778C7.34935 1.77778 1.77778 7.34935 1.77778 14.2222C1.77778 21.0951 7.34935 26.6667 14.2222 26.6667Z" fill="#D2D2D2"/>
</svg>
